<svg width="68" height="451" viewBox="0 0 68 451" fill="none" xmlns="http://www.w3.org/2000/svg">
<path d="M33.3589 450.641C33.713 450.995 34.287 450.995 34.6411 450.641L40.4109 444.871C40.765 444.517 40.765 443.943 40.4109 443.589C40.0569 443.235 39.4828 443.235 39.1288 443.589L34 448.718L28.8712 443.589C28.5172 443.235 27.9431 443.235 27.5891 443.589C27.235 443.943 27.235 444.517 27.5891 444.871L33.3589 450.641ZM34 0L33.0934 0L33.0934 450H34H34.9066L34.9066 0L34 0Z" fill="#C4C4C4"/>
<circle cx="34" cy="67" r="34" fill="white"/>
<circle cx="48" cy="59" r="14" fill="#7CB690"/>
<path d="M50.5071 51.4545V66H47.4318V54.3736H47.3466L44.0156 56.4616V53.7344L47.6165 51.4545H50.5071Z" fill="white"/>
<path d="M14 88V68.8421H21.6667V66.1053L25.5 62L29.3333 66.1053V74.3158H37V88H14ZM16.5556 85.2632H19.1111V82.5263H16.5556V85.2632ZM16.5556 79.7895H19.1111V77.0526H16.5556V79.7895ZM16.5556 74.3158H19.1111V71.5789H16.5556V74.3158ZM24.2222 85.2632H26.7778V82.5263H24.2222V85.2632ZM24.2222 79.7895H26.7778V77.0526H24.2222V79.7895ZM24.2222 74.3158H26.7778V71.5789H24.2222V74.3158ZM24.2222 68.8421H26.7778V66.1053H24.2222V68.8421ZM31.8889 85.2632H34.4444V82.5263H31.8889V85.2632ZM31.8889 79.7895H34.4444V77.0526H31.8889V79.7895Z" fill="#7CB690"/>
<circle cx="34" cy="163" r="34" fill="white"/>
<circle cx="48" cy="155" r="14" fill="#7CB690"/>
<path d="M43.179 162V159.784L48.3565 154.99C48.7969 154.564 49.1662 154.18 49.4645 153.839C49.7675 153.499 49.9972 153.165 50.1534 152.838C50.3097 152.507 50.3878 152.149 50.3878 151.766C50.3878 151.339 50.2907 150.973 50.0966 150.665C49.9025 150.352 49.6373 150.113 49.3011 149.947C48.965 149.777 48.5838 149.692 48.1577 149.692C47.7126 149.692 47.3243 149.782 46.9929 149.962C46.6615 150.142 46.4058 150.4 46.2259 150.736C46.0459 151.072 45.956 151.472 45.956 151.936H43.0369C43.0369 150.984 43.2524 150.158 43.6832 149.457C44.1141 148.757 44.7178 148.214 45.4943 147.831C46.2708 147.447 47.1657 147.256 48.179 147.256C49.2206 147.256 50.1274 147.44 50.8991 147.81C51.6757 148.174 52.2794 148.681 52.7102 149.33C53.1411 149.978 53.3565 150.722 53.3565 151.56C53.3565 152.109 53.2476 152.651 53.0298 153.186C52.8168 153.721 52.4356 154.315 51.8864 154.969C51.3371 155.617 50.563 156.396 49.5639 157.305L47.4403 159.386V159.486H53.5483V162H43.179Z" fill="white"/>
<path d="M24 177.817C26.3571 176.084 28.1369 174.416 29.3393 172.812C30.5417 171.209 31.1429 169.703 31.1429 168.295C31.1429 166.345 30.4762 164.742 29.1429 163.485C27.8095 162.228 26.0952 161.6 24 161.6C21.9048 161.6 20.1905 162.228 18.8571 163.485C17.5238 164.742 16.8571 166.345 16.8571 168.295C16.8571 169.703 17.4583 171.209 18.6607 172.812C19.8631 174.416 21.6429 176.084 24 177.817ZM24 181.1C20.6429 178.847 18.1369 176.658 16.4821 174.535C14.8274 172.412 14 170.332 14 168.295C14 165.587 14.9286 163.36 16.7857 161.616C18.6429 159.872 21.0476 159 24 159C26.9524 159 29.3571 159.872 31.2143 161.616C33.0714 163.36 34 165.587 34 168.295C34 170.332 33.1726 172.412 31.5179 174.535C29.8631 176.658 27.3571 178.847 24 181.1ZM24 170.7C24.7857 170.7 25.4583 170.445 26.0179 169.936C26.5774 169.427 26.8571 168.815 26.8571 168.1C26.8571 167.385 26.5774 166.773 26.0179 166.264C25.4583 165.755 24.7857 165.5 24 165.5C23.2143 165.5 22.5417 165.755 21.9821 166.264C21.4226 166.773 21.1429 167.385 21.1429 168.1C21.1429 168.815 21.4226 169.427 21.9821 169.936C22.5417 170.445 23.2143 170.7 24 170.7ZM14 185V182.4H34V185H14Z" fill="#7CB690"/>
<circle cx="34" cy="259" r="34" fill="white"/>
<circle cx="48" cy="251" r="14" fill="#7CB690"/>
<path d="M48.5554 258.199C47.4948 258.199 46.5502 258.017 45.7216 257.652C44.8977 257.283 44.2467 256.776 43.7685 256.132C43.295 255.483 43.0511 254.735 43.0369 253.888H46.1335C46.1525 254.243 46.2685 254.555 46.4815 254.825C46.6993 255.09 46.9882 255.296 47.348 255.443C47.7079 255.59 48.1127 255.663 48.5625 255.663C49.0312 255.663 49.4455 255.58 49.8054 255.415C50.1652 255.249 50.447 255.019 50.6506 254.726C50.8542 254.432 50.956 254.094 50.956 253.71C50.956 253.322 50.8471 252.979 50.6293 252.68C50.4162 252.377 50.1084 252.141 49.706 251.97C49.3082 251.8 48.8348 251.714 48.2855 251.714H46.929V249.456H48.2855C48.7495 249.456 49.1591 249.375 49.5142 249.214C49.8741 249.054 50.1534 248.831 50.3523 248.547C50.5511 248.258 50.6506 247.922 50.6506 247.538C50.6506 247.174 50.563 246.854 50.3878 246.58C50.2173 246.3 49.9759 246.082 49.6634 245.926C49.3556 245.77 48.9957 245.692 48.5838 245.692C48.1671 245.692 47.786 245.768 47.4403 245.919C47.0947 246.066 46.8177 246.277 46.6094 246.551C46.401 246.826 46.2898 247.148 46.2756 247.517H43.3281C43.3423 246.679 43.5814 245.94 44.0455 245.301C44.5095 244.662 45.1345 244.162 45.9205 243.803C46.7112 243.438 47.6037 243.256 48.598 243.256C49.6018 243.256 50.4801 243.438 51.233 243.803C51.9858 244.167 52.5705 244.66 52.9872 245.28C53.4086 245.895 53.617 246.587 53.6122 247.354C53.617 248.168 53.3636 248.848 52.8523 249.392C52.3456 249.937 51.6851 250.282 50.8707 250.429V250.543C51.9408 250.68 52.7552 251.052 53.3139 251.658C53.8774 252.259 54.1567 253.012 54.152 253.916C54.1567 254.745 53.9176 255.481 53.4347 256.125C52.9564 256.769 52.2959 257.276 51.4531 257.645C50.6103 258.014 49.6444 258.199 48.5554 258.199Z" fill="white"/>
<path d="M14.3333 280C13.6917 280 13.1424 279.755 12.6854 279.266C12.2285 278.776 12 278.188 12 277.5V260C12 259.312 12.2285 258.724 12.6854 258.234C13.1424 257.745 13.6917 257.5 14.3333 257.5H19.2042C19.4181 256.771 19.8361 256.172 20.4583 255.703C21.0806 255.234 21.7611 255 22.5 255C23.2778 255 23.9729 255.234 24.5854 255.703C25.1979 256.172 25.6111 256.771 25.825 257.5H30.6667C31.3083 257.5 31.8576 257.745 32.3146 258.234C32.7715 258.724 33 259.312 33 260V277.5C33 278.188 32.7715 278.776 32.3146 279.266C31.8576 279.755 31.3083 280 30.6667 280H14.3333ZM14.3333 277.5H30.6667V260H28.3333V263.75H16.6667V260H14.3333V277.5ZM22.5 260C22.8306 260 23.1076 259.88 23.3313 259.641C23.5549 259.401 23.6667 259.104 23.6667 258.75C23.6667 258.396 23.5549 258.099 23.3313 257.859C23.1076 257.62 22.8306 257.5 22.5 257.5C22.1694 257.5 21.8924 257.62 21.6688 257.859C21.4451 258.099 21.3333 258.396 21.3333 258.75C21.3333 259.104 21.4451 259.401 21.6688 259.641C21.8924 259.88 22.1694 260 22.5 260Z" fill="#7CB690"/>
<circle cx="34" cy="355" r="34" fill="white"/>
<circle cx="48" cy="347" r="14" fill="#7CB690"/>
<path d="M42.9588 351.443V349.021L49.0312 339.455H51.1193V342.807H49.8835L46.0554 348.865V348.979H54.6847V351.443H42.9588ZM49.9403 354V350.705L49.9972 349.632V339.455H52.8807V354H49.9403Z" fill="white"/>
<path d="M22.5 378C21.8033 378 21.2069 377.726 20.7108 377.178C20.2147 376.629 19.9667 375.97 19.9667 375.2H25.0333C25.0333 375.97 24.7853 376.629 24.2892 377.178C23.7931 377.726 23.1967 378 22.5 378ZM17.4333 373.8V371H27.5667V373.8H17.4333ZM17.75 369.6C16.2933 368.643 15.1375 367.36 14.2825 365.75C13.4275 364.14 13 362.39 13 360.5C13 357.583 13.9236 355.104 15.7708 353.063C17.6181 351.021 19.8611 350 22.5 350C25.1389 350 27.3819 351.021 29.2292 353.063C31.0764 355.104 32 357.583 32 360.5C32 362.39 31.5725 364.14 30.7175 365.75C29.8625 367.36 28.7067 368.643 27.25 369.6H17.75ZM18.51 366.8H26.49C27.44 366.053 28.1736 365.132 28.6908 364.035C29.2081 362.938 29.4667 361.76 29.4667 360.5C29.4667 358.353 28.7911 356.533 27.44 355.04C26.0889 353.547 24.4422 352.8 22.5 352.8C20.5578 352.8 18.9111 353.547 17.56 355.04C16.2089 356.533 15.5333 358.353 15.5333 360.5C15.5333 361.76 15.7919 362.938 16.3092 364.035C16.8264 365.132 17.56 366.053 18.51 366.8Z" fill="#7CB690"/>
</svg>
